<svg width="56" height="56" viewBox="0 0 56 56" fill="none" xmlns="http://www.w3.org/2000/svg">
<g clip-path="url(#clip0_1072_18025)">
<path d="M52.7328 2.71613C50.8261 0.889129 48.7229 -0.0366211 46.4777 -0.0366211C42.9672 -0.0366211 40.406 2.23138 39.7051 2.92613C38.719 3.90263 5.0796 37.5543 5.0796 37.5543C4.85913 37.7758 4.69996 38.0508 4.61765 38.3523C3.85903 41.1557 0.0589001 53.5948 0.0211657 53.7199C-0.173905 54.3569 0.000165727 55.0508 0.470041 55.5206C0.801497 55.8512 1.2505 56.0368 1.71861 56.0369C1.89974 56.0369 2.08256 56.0098 2.26106 55.9511C2.38968 55.9091 15.2294 51.759 17.3425 51.1282C17.6213 51.0441 17.8754 50.8933 18.0828 50.6889C19.418 49.3694 50.7929 18.3436 52.8754 16.1929C55.0296 13.973 56.0998 11.6613 56.0586 9.32325C56.0158 7.015 54.8966 4.7925 52.7328 2.71613ZM39.1478 8.52263C40.0394 8.73875 42.1421 9.44477 44.2893 11.6113C46.4593 13.8006 47.0465 16.3031 47.1558 16.8727C40.2748 23.7178 24.4356 39.3891 18.1916 45.5657C17.615 44.2226 16.6831 42.6047 15.1842 41.0945C13.3537 39.25 11.4908 38.2079 10.054 37.6216C16.2333 31.4415 32.3709 15.2969 39.1478 8.52263ZM7.67758 40.5755C8.63921 40.831 10.6368 41.5721 12.673 43.6249C14.241 45.206 14.9812 46.9499 15.3137 48.013C12.8812 48.7953 7.55508 50.6336 4.17058 51.7248C5.17333 48.4251 6.86728 43.2863 7.67758 40.5755ZM50.3355 13.692C50.2252 13.8046 50.1147 13.9169 50.0038 14.0289C49.4508 12.6043 48.4804 10.7739 46.8004 9.07989C45.0837 7.34914 43.3425 6.32802 41.9469 5.72427C42.0658 5.60614 42.1577 5.51334 42.1936 5.47839C42.394 5.28059 44.2114 3.54377 46.4767 3.54377C47.7805 3.54377 49.0606 4.13877 50.2839 5.31127C51.7337 6.70164 52.481 8.07364 52.5055 9.39052C52.5291 10.7345 51.7994 12.1818 50.3355 13.692Z" fill="#493B8A"/>
</g>
<defs>
<clipPath id="clip0_1072_18025">
<rect width="56" height="56" fill="white"/>
</clipPath>
</defs>
</svg>
