<svg width="24" height="24" viewBox="0 0 24 24" fill="none" xmlns="http://www.w3.org/2000/svg">
<path fill-rule="evenodd" clip-rule="evenodd" d="M9.04062 15.3355L4.67 11.5L9.04062 7.66451C9.47768 7.28096 9.47768 6.67121 9.04062 6.28766C8.60356 5.90411 7.90875 5.90411 7.47168 6.28766L2.3278 10.8017C1.89073 11.1853 1.89073 11.8049 2.3278 12.1884L7.47168 16.7123C7.90875 17.0959 8.60356 17.0959 9.04062 16.7123C9.47768 16.3288 9.47768 15.719 9.04062 15.3355ZM14.9594 15.3355L19.33 11.5L14.9594 7.66451C14.5223 7.28096 14.5223 6.67121 14.9594 6.28766C15.3964 5.90411 16.0913 5.90411 16.5283 6.28766L21.6722 10.8017C22.1093 11.1853 22.1093 11.8049 21.6722 12.1884L16.5283 16.7123C16.0913 17.0959 15.3964 17.0959 14.9594 16.7123C14.5223 16.3288 14.5223 15.719 14.9594 15.3355Z" fill="#000000"/>
</svg>
