<svg width="26" height="26" viewBox="0 0 26 26" fill="none" xmlns="http://www.w3.org/2000/svg">
<path d="M23.7443 13.4489L15.8438 9.49914V4.875C15.8438 4.12079 15.5441 3.39747 15.0108 2.86416C14.4775 2.33086 13.7542 2.03125 13 2.03125C12.2458 2.03125 11.5225 2.33086 10.9892 2.86416C10.4559 3.39747 10.1562 4.12079 10.1562 4.875V9.49914L2.2557 13.4489C2.18821 13.4827 2.13146 13.5346 2.09181 13.5988C2.05217 13.663 2.0312 13.737 2.03125 13.8125V17.0625C2.0313 17.1225 2.04465 17.1818 2.07035 17.2361C2.09606 17.2903 2.13347 17.3382 2.17989 17.3763C2.22631 17.4144 2.2806 17.4417 2.33884 17.4563C2.39708 17.4708 2.45783 17.4723 2.51672 17.4606L10.1562 15.9372V18.523L8.65008 20.0251C8.61236 20.0628 8.58246 20.1076 8.56207 20.157C8.54168 20.2063 8.53121 20.2591 8.53125 20.3125V23.5625C8.53129 23.6289 8.5476 23.6943 8.57877 23.7529C8.60994 23.8116 8.65501 23.8617 8.71004 23.8989C8.76506 23.9361 8.82836 23.9592 8.8944 23.9662C8.96044 23.9733 9.0272 23.964 9.08883 23.9393L13 22.3752L16.9112 23.9393C16.9592 23.959 17.0106 23.969 17.0625 23.9687C17.1437 23.969 17.223 23.9446 17.29 23.8987C17.345 23.8615 17.39 23.8114 17.4212 23.7528C17.4524 23.6942 17.4687 23.6289 17.4688 23.5625V20.3125C17.4688 20.2591 17.4583 20.2063 17.4379 20.157C17.4175 20.1076 17.3876 20.0628 17.3499 20.0251L15.8438 18.5189V15.9331L23.4833 17.4566C23.5418 17.4682 23.6022 17.4668 23.6602 17.4525C23.7181 17.4381 23.7722 17.4112 23.8186 17.3735C23.8649 17.3359 23.9024 17.2885 23.9284 17.2348C23.9543 17.181 23.9681 17.1222 23.9688 17.0625V13.8125C23.9688 13.737 23.9478 13.663 23.9082 13.5988C23.8685 13.5346 23.8118 13.4827 23.7443 13.4489ZM23.1562 16.5669L15.5167 15.0434C15.4582 15.0318 15.3978 15.0332 15.3398 15.0475C15.2819 15.0619 15.2278 15.0888 15.1814 15.1265C15.1351 15.1641 15.0976 15.2115 15.0716 15.2652C15.0457 15.319 15.0319 15.3778 15.0312 15.4375V18.6875C15.0312 18.7409 15.0417 18.7937 15.0621 18.843C15.0825 18.8923 15.1124 18.9372 15.1501 18.9749L16.6562 20.4811V22.9623L13.1513 21.5607C13.0536 21.5212 12.9444 21.5212 12.8466 21.5607L9.34375 22.9623V20.4811L10.8499 18.9749C10.8876 18.9372 10.9175 18.8923 10.9379 18.843C10.9583 18.7937 10.9688 18.7409 10.9688 18.6875V15.4375C10.9687 15.3775 10.9553 15.3182 10.9296 15.2639C10.9039 15.2097 10.8665 15.1618 10.8201 15.1237C10.7737 15.0856 10.7194 15.0583 10.6612 15.0437C10.6029 15.0292 10.5422 15.0277 10.4833 15.0394L2.84375 16.5669V14.0634L10.7443 10.1136C10.8118 10.0798 10.8685 10.0279 10.9082 9.96369C10.9478 9.89947 10.9688 9.82547 10.9688 9.75V4.875C10.9688 4.33628 11.1828 3.81962 11.5637 3.43869C11.9446 3.05776 12.4613 2.84375 13 2.84375C13.5387 2.84375 14.0554 3.05776 14.4363 3.43869C14.8172 3.81962 15.0312 4.33628 15.0312 4.875V9.75C15.0312 9.82547 15.0522 9.89947 15.0918 9.96369C15.1315 10.0279 15.1882 10.0798 15.2557 10.1136L23.1562 14.0634V16.5669Z" fill="#212121" stroke="black" stroke-width="0.5"/>
</svg>
