<svg width="25" height="25" viewBox="0 0 25 25" fill="none" xmlns="http://www.w3.org/2000/svg">
<path d="M8.97473 5.18868C8.78103 4.99511 8.5416 4.8535 8.2786 4.77695C8.0156 4.70041 7.73753 4.69141 7.47012 4.75078C7.20271 4.81016 6.95462 4.93599 6.74879 5.11662C6.54296 5.29726 6.38606 5.52687 6.2926 5.7842L0.0976403 22.8149C0.00862867 23.0602 -0.0201117 23.3234 0.0138365 23.5822C0.0477848 23.8409 0.143429 24.0878 0.292722 24.3019C0.442015 24.5161 0.64059 24.6913 0.87174 24.8127C1.10289 24.9342 1.35985 24.9984 1.62101 25C1.81303 24.9995 2.0035 24.9656 2.18387 24.8998L19.2206 18.7087C19.4776 18.6147 19.7068 18.4574 19.8869 18.2514C20.067 18.0454 20.1923 17.7974 20.2511 17.5302C20.3099 17.263 20.3004 16.9854 20.2234 16.7229C20.1464 16.4603 20.0044 16.2215 19.8106 16.0283L8.97473 5.18868ZM1.70007 23.5696C1.66218 23.5836 1.62107 23.5864 1.5816 23.5778C1.54214 23.5692 1.50597 23.5494 1.47741 23.5209C1.44884 23.4923 1.42906 23.4562 1.42043 23.4167C1.41179 23.3773 1.41465 23.3362 1.42867 23.2983L3.2199 18.3726L6.6289 21.7783L1.70007 23.5696ZM8.09681 21.2453L3.75444 16.9045L5.48549 12.1462L12.8593 19.5153L8.09681 21.2453ZM18.8772 17.2252C18.8701 17.2603 18.854 17.2929 18.8304 17.3198C18.8068 17.3467 18.7766 17.3669 18.7427 17.3785L14.3272 18.9858L6.01531 10.6781L7.62364 6.27241C7.63505 6.23846 7.65526 6.20814 7.6822 6.18453C7.70915 6.16091 7.74187 6.14485 7.77704 6.13797C7.79309 6.13587 7.80936 6.13587 7.82541 6.13797C7.85296 6.13784 7.88024 6.14332 7.9056 6.15406C7.93095 6.16481 7.95386 6.1806 7.97291 6.20047L18.8147 17.0354C18.8405 17.059 18.8599 17.0889 18.8708 17.1221C18.8818 17.1554 18.884 17.1909 18.8772 17.2252ZM15.1013 7.31132C15.118 6.71024 15.2641 6.11982 15.5296 5.58019C16.1125 4.41509 17.217 3.77358 18.6412 3.77358C19.5227 3.77358 20.1198 3.45047 20.4679 2.78538C20.6446 2.43191 20.7458 2.04559 20.7652 1.65094C20.7652 1.46329 20.8398 1.28332 20.9726 1.15063C21.1054 1.01794 21.2854 0.943396 21.4732 0.943396C21.661 0.943396 21.8411 1.01794 21.9738 1.15063C22.1066 1.28332 22.1812 1.46329 22.1812 1.65094C22.1812 2.875 21.4414 5.18868 18.6412 5.18868C17.7598 5.18868 17.1627 5.51179 16.8146 6.17689C16.6373 6.53014 16.536 6.91658 16.5172 7.31132C16.5172 7.49897 16.4427 7.67894 16.3099 7.81163C16.1771 7.94432 15.997 8.01887 15.8092 8.01887C15.6215 8.01887 15.4414 7.94432 15.3086 7.81163C15.1758 7.67894 15.1013 7.49897 15.1013 7.31132ZM12.2693 3.53774V0.707547C12.2693 0.519894 12.3439 0.339927 12.4766 0.207236C12.6094 0.074545 12.7895 0 12.9773 0C13.165 0 13.3451 0.074545 13.4779 0.207236C13.6107 0.339927 13.6853 0.519894 13.6853 0.707547V3.53774C13.6853 3.72539 13.6107 3.90536 13.4779 4.03805C13.3451 4.17074 13.165 4.24528 12.9773 4.24528C12.7895 4.24528 12.6094 4.17074 12.4766 4.03805C12.3439 3.90536 12.2693 3.72539 12.2693 3.53774ZM23.8615 13.4151C23.9311 13.4799 23.9869 13.558 24.0256 13.6448C24.0643 13.7316 24.0851 13.8253 24.0868 13.9203C24.0884 14.0153 24.0709 14.1096 24.0353 14.1977C23.9997 14.2858 23.9467 14.3659 23.8795 14.4331C23.8123 14.5002 23.7322 14.5532 23.644 14.5888C23.5559 14.6244 23.4614 14.6419 23.3664 14.6402C23.2713 14.6385 23.1776 14.6177 23.0907 14.579C23.0039 14.5404 22.9257 14.4846 22.8609 14.4151L20.9729 12.5283C20.8478 12.3942 20.7798 12.2168 20.783 12.0335C20.7862 11.8502 20.8605 11.6753 20.9902 11.5456C21.12 11.416 21.295 11.3417 21.4784 11.3385C21.6618 11.3353 21.8393 11.4033 21.9735 11.5283L23.8615 13.4151ZM24.5294 7.98231L21.6974 8.92571C21.6087 8.95726 21.5146 8.97081 21.4206 8.96557C21.3266 8.96033 21.2346 8.93641 21.15 8.89521C21.0653 8.85401 20.9898 8.79635 20.9277 8.72561C20.8656 8.65487 20.8183 8.57246 20.7885 8.48322C20.7587 8.39398 20.7469 8.29969 20.754 8.20587C20.7611 8.11205 20.7869 8.02058 20.8297 7.93682C20.8726 7.85307 20.9318 7.7787 21.0038 7.71807C21.0758 7.65744 21.1591 7.61177 21.249 7.58373L24.081 6.64033C24.2579 6.58512 24.4495 6.60146 24.6145 6.68584C24.7795 6.77023 24.9048 6.91592 24.9635 7.09162C25.0223 7.26733 25.0097 7.45904 24.9285 7.62558C24.8473 7.79212 24.704 7.9202 24.5294 7.98231Z" fill="#212121"/>
</svg>
