<svg width="18" height="18" viewBox="0 0 18 18" fill="none" xmlns="http://www.w3.org/2000/svg">
<path d="M15.8906 9H14.9062C14.8289 9 14.7656 9.06328 14.7656 9.14062V14.7656H3.23438V3.23438H8.85938C8.93672 3.23438 9 3.17109 9 3.09375V2.10938C9 2.03203 8.93672 1.96875 8.85938 1.96875H2.53125C2.22012 1.96875 1.96875 2.22012 1.96875 2.53125V15.4688C1.96875 15.7799 2.22012 16.0312 2.53125 16.0312H15.4688C15.7799 16.0312 16.0312 15.7799 16.0312 15.4688V9.14062C16.0312 9.06328 15.968 9 15.8906 9Z" fill="#212121"/>
<path d="M6.25607 9.40254L6.22267 11.4926C6.22092 11.649 6.34748 11.7773 6.50392 11.7773H6.51096L8.58517 11.7264C8.62033 11.7246 8.65549 11.7105 8.6801 11.6859L15.9908 4.39102C16.0453 4.33652 16.0453 4.24688 15.9908 4.19238L13.8059 2.00918C13.7778 1.98105 13.7426 1.96875 13.7057 1.96875C13.6688 1.96875 13.6336 1.98281 13.6055 2.00918L6.2965 9.3041C6.27111 9.33065 6.25668 9.36581 6.25607 9.40254ZM7.37228 9.81738L13.7057 3.49805L14.5002 4.29082L8.1633 10.6137L7.35998 10.633L7.37228 9.81738Z" fill="#212121"/>
</svg>
