<svg width="16" height="21" viewBox="0 0 16 21" fill="none" xmlns="http://www.w3.org/2000/svg">
<path fill-rule="evenodd" clip-rule="evenodd" d="M2.79567 0.0676189C2.51637 0.206335 2.37281 0.569949 2.4884 0.845803C2.5093 0.895693 2.82569 1.4539 3.19148 2.08622L3.85649 3.23595L3.43559 4.78828C2.97368 6.49181 2.95808 6.57656 3.06808 6.78507C3.23426 7.1001 3.62123 7.22224 3.93623 7.05912C4.185 6.93024 4.18732 6.92439 4.60939 5.34849C4.88292 4.32717 4.99603 3.94257 5.02289 3.94248C5.04323 3.94244 5.67021 4.1057 6.41622 4.30535C7.8305 4.68382 7.96926 4.70995 8.15481 4.63267C8.613 4.44184 8.6743 3.80641 8.26187 3.52281C8.18069 3.46698 7.81728 3.3607 6.56504 3.02656C5.68855 2.7927 4.96759 2.59686 4.96284 2.59129C4.95809 2.58576 4.65124 2.05712 4.28093 1.41654C3.91058 0.775958 3.57277 0.217102 3.53018 0.174638C3.34645 -0.00858451 3.03917 -0.0533691 2.79567 0.0676189ZM12.6575 3.19126C10.5909 3.50953 9.76599 6.08379 11.2732 7.51123C12.9061 9.05753 15.5409 7.93462 15.5409 5.69242C15.5409 4.13396 14.1833 2.95634 12.6575 3.19126ZM7.30555 6.23749C5.3472 6.60709 4.55828 9.00272 5.92051 10.4434C7.30402 11.9067 9.73848 11.2725 10.2311 9.32062C10.672 7.57361 9.08543 5.90154 7.30555 6.23749ZM2.0863 9.25955C-0.0480564 9.63509 -0.748305 12.3912 0.950064 13.7316C2.62586 15.0541 5.04388 13.8717 5.03639 11.7334C5.03085 10.1635 3.62924 8.9881 2.0863 9.25955ZM13.0726 9.60604C11.2524 9.88811 10.3381 11.9705 11.3614 13.5037C12.5037 15.2152 15.1367 14.8992 15.8445 12.9656C16.5032 11.1662 14.973 9.31153 13.0726 9.60604ZM7.82049 12.6299C6.15536 12.8616 5.18377 14.723 5.93378 16.2446C6.86985 18.1437 9.61293 18.1102 10.5034 16.1888C11.346 14.3705 9.8238 12.3513 7.82049 12.6299ZM12.9566 16.0104C11.1828 16.3889 10.3571 18.424 11.3721 19.9157C12.3526 21.3569 14.5798 21.3625 15.5491 19.9262C16.5253 18.4796 15.8384 16.562 14.1645 16.0611C13.8776 15.9752 13.2456 15.9487 12.9566 16.0104Z" fill="black"/>
</svg>
