<svg width="24" height="24" viewBox="0 0 24 24" fill="none" xmlns="http://www.w3.org/2000/svg">
<path fill-rule="evenodd" clip-rule="evenodd" d="M17.2981 7.71491L17.7184 8.78945C18.2283 8.90509 18.7349 9.03709 19.2384 9.18436C19.6896 9.31527 20 9.73745 20 10.2164V13.8655C20 14.962 19.5741 16.0136 18.8159 16.789C18.0578 17.5644 17.0295 18 15.9573 18H15.3792C15.2292 17.9999 15.0821 17.9586 14.9531 17.8802C14.8242 17.8019 14.7182 17.6896 14.6464 17.5549C13.504 15.4135 10.4971 15.4135 9.3536 17.5549C9.28178 17.6896 9.17583 17.8019 9.04689 17.8802C8.91795 17.9586 8.77077 17.9999 8.6208 18H8.04267C6.97048 18 5.94222 17.5644 5.18407 16.789C4.42592 16.0136 4 14.962 4 13.8655V10.2164C4 9.73636 4.3104 9.31636 4.7616 9.18436C5.26507 9.03709 5.77173 8.90509 6.2816 8.78945L6.70187 7.71491C6.89971 7.20876 7.24131 6.77486 7.6826 6.46918C8.12389 6.16351 8.64462 6.00008 9.1776 6H14.8224C15.3554 6.00008 15.8761 6.16351 16.3174 6.46918C16.7587 6.77486 17.1003 7.20876 17.2981 7.71491V7.71491ZM7.69173 8.11855C7.81067 7.81503 8.01578 7.55492 8.28062 7.37175C8.54546 7.18859 8.85789 7.09077 9.1776 7.09091H14.8224C15.1422 7.09085 15.4547 7.18884 15.7196 7.37221C15.9845 7.55558 16.1895 7.81592 16.3083 8.11964L16.4715 8.53855C13.5123 8.01741 10.4877 8.01741 7.52853 8.53855L7.69173 8.11964V8.11855Z" fill="#000000"/>
</svg>
