<svg width="24" height="24" viewBox="0 0 24 24" fill="none" xmlns="http://www.w3.org/2000/svg">
<path d="M22.1841 11.8373L13.1279 2.78578L12.5208 2.17875C12.3825 2.04135 12.1955 1.96423 12.0005 1.96423C11.8056 1.96423 11.6185 2.04135 11.4802 2.17875L1.81694 11.8373C1.67522 11.9785 1.56321 12.1466 1.48753 12.3318C1.41186 12.517 1.37404 12.7154 1.37632 12.9155C1.38569 13.7405 2.07241 14.3991 2.89741 14.3991H3.89351V22.0327H20.1076V14.3991H21.1248C21.5255 14.3991 21.9029 14.242 22.1865 13.9584C22.3261 13.8192 22.4368 13.6537 22.512 13.4715C22.5872 13.2892 22.6255 13.0939 22.6248 12.8967C22.6248 12.4983 22.4677 12.1209 22.1841 11.8373ZM13.313 20.3452H10.688V15.5639H13.313V20.3452ZM18.4201 12.7116V20.3452H14.813V15.0014C14.813 14.4834 14.3935 14.0639 13.8755 14.0639H10.1255C9.60757 14.0639 9.18804 14.4834 9.18804 15.0014V20.3452H5.58101V12.7116H3.33101L12.0029 4.04671L12.5443 4.58812L20.6724 12.7116H18.4201Z" fill="black" />
</svg>
