<svg version="1.1" viewBox="0.0 0.0 24.0 24.0" width="24" height="24" fill="none" stroke="none" stroke-linecap="square" stroke-miterlimit="10" xmlns:xlink="http://www.w3.org/1999/xlink" xmlns="http://www.w3.org/2000/svg"><clipPath id="p.0"><path d="m0 0l24.0 0l0 24.0l-24.0 0l0 -24.0z" clip-rule="nonzero"/></clipPath><g clip-path="url(#p.0)"><path fill="#000000" fill-opacity="0.0" d="m0 0l24.0 0l0 24.0l-24.0 0z" fill-rule="evenodd"/><path fill="#000000" fill-opacity="0.0" d="m2.173268 6.2896423l19.653543 0l0 10.677166l-19.653543 0z" fill-rule="evenodd"/><path stroke="#000000" stroke-width="1.0" stroke-linejoin="round" stroke-linecap="butt" d="m2.173268 6.2896423l19.653543 0l0 10.677166l-19.653543 0z" fill-rule="evenodd"/><path fill="#000000" fill-opacity="0.0" d="m2.1732283 16.932367l19.653542 0l0 3.5275593l-19.653542 0z" fill-rule="evenodd"/><path stroke="#000000" stroke-width="1.0" stroke-linejoin="round" stroke-linecap="butt" d="m2.1732283 16.932367l19.653542 0l0 3.5275593l-19.653542 0z" fill-rule="evenodd"/><path fill="#000000" d="m7.9080195 5.355772l8.15748 0c0.11694527 0 0.22910118 0.046456814 0.31179428 0.12914991c0.0826931 0.0826931 0.12915039 0.19484949 0.12915039 0.31179523l0 0.44094467c0 4.1484833E-5 -3.4332275E-5 7.534027E-5 -7.6293945E-5 7.534027E-5l-9.039293 -7.534027E-5l0 0c-4.1484833E-5 0 -7.534027E-5 -3.385544E-5 -7.534027E-5 -7.534027E-5l7.534027E-5 -0.44086933l0 0c0 -0.24352741 0.19741774 -0.44094515 0.44094467 -0.44094515z" fill-rule="evenodd"/><path stroke="#000000" stroke-width="1.0" stroke-linejoin="round" stroke-linecap="butt" d="m7.9080195 5.355772l8.15748 0c0.11694527 0 0.22910118 0.046456814 0.31179428 0.12914991c0.0826931 0.0826931 0.12915039 0.19484949 0.12915039 0.31179523l0 0.44094467c0 4.1484833E-5 -3.4332275E-5 7.534027E-5 -7.6293945E-5 7.534027E-5l-9.039293 -7.534027E-5l0 0c-4.1484833E-5 0 -7.534027E-5 -3.385544E-5 -7.534027E-5 -7.534027E-5l7.534027E-5 -0.44086933l0 0c0 -0.24352741 0.19741774 -0.44094515 0.44094467 -0.44094515z" fill-rule="evenodd"/><path fill="#000000" d="m8.681973 3.5398788l6.64567 0c0.11694527 0 0.22910118 0.046456337 0.31179523 0.12914968c0.0826931 0.0826931 0.12914944 0.19484925 0.12914944 0.311795l0 0.44094515c0 3.4332275E-5 -2.861023E-5 6.246567E-5 -6.2942505E-5 6.246567E-5l-7.5274963 -6.246567E-5l0 0c-3.4332275E-5 0 -6.2942505E-5 -2.8133392E-5 -6.2942505E-5 -6.2942505E-5l6.2942505E-5 -0.4408822l0 0c0 -0.24352694 0.19741821 -0.44094467 0.44094467 -0.44094467z" fill-rule="evenodd"/><path fill="#000000" d="m4.107018 8.624672l0 0c0 -0.59142303 0.47944307 -1.0708661 1.0708661 -1.0708661l0 0c0.28401136 0 0.5563903 0.11282301 0.75721693 0.31364918c0.20082617 0.20082617 0.31364918 0.4732051 0.31364918 0.75721693l0 0c0 0.59142303 -0.47944307 1.0708666 -1.0708661 1.0708666l0 0c-0.59142303 0 -1.0708661 -0.47944355 -1.0708661 -1.0708666z" fill-rule="evenodd"/><path fill="#000000" d="m4.107018 11.627296l0 0c0 -0.59142303 0.47944307 -1.0708656 1.0708661 -1.0708656l0 0c0.28401136 0 0.5563903 0.11282253 0.75721693 0.31364918c0.20082617 0.20082664 0.31364918 0.47320557 0.31364918 0.75721645l0 0c0 0.59142303 -0.47944307 1.0708666 -1.0708661 1.0708666l0 0c-0.59142303 0 -1.0708661 -0.47944355 -1.0708661 -1.0708666z" fill-rule="evenodd"/><path fill="#000000" d="m4.107018 14.628609l0 0c0 -0.59142303 0.47944307 -1.0708656 1.0708661 -1.0708656l0 0c0.28401136 0 0.5563903 0.11282253 0.75721693 0.31364918c0.20082617 0.20082664 0.31364918 0.47320557 0.31364918 0.75721645l0 0c0 0.59142303 -0.47944307 1.0708666 -1.0708661 1.0708666l0 0c-0.59142303 0 -1.0708661 -0.47944355 -1.0708661 -1.0708666z" fill-rule="evenodd"/><path fill="#000000" d="m6.852425 10.083989l0 0c0 -0.59142303 0.47944307 -1.0708656 1.0708661 -1.0708656l0 0c0.2840109 0 0.5563898 0.11282253 0.75721645 0.31364918c0.20082664 0.20082664 0.31364918 0.47320557 0.31364918 0.75721645l0 0c0 0.59142303 -0.4794426 1.0708666 -1.0708656 1.0708666l0 0c-0.59142303 0 -1.0708661 -0.47944355 -1.0708661 -1.0708666z" fill-rule="evenodd"/><path fill="#000000" d="m6.852425 13.086615l0 0c0 -0.59142303 0.47944307 -1.0708666 1.0708661 -1.0708666l0 0c0.2840109 0 0.5563898 0.11282349 0.75721645 0.31364918c0.20082664 0.20082664 0.31364918 0.47320557 0.31364918 0.7572174l0 0c0 0.59142303 -0.4794426 1.0708656 -1.0708656 1.0708656l0 0c-0.59142303 0 -1.0708661 -0.4794426 -1.0708661 -1.0708656z" fill-rule="evenodd"/><path fill="#000000" d="m9.597832 8.582677l0 0c0 -0.59142256 0.47944355 -1.0708656 1.0708666 -1.0708656l0 0c0.2840109 0 0.5563898 0.11282301 0.75721645 0.31364918c0.20082664 0.20082664 0.31364918 0.47320557 0.31364918 0.75721645l0 0c0 0.59142303 -0.4794426 1.0708666 -1.0708656 1.0708666l0 0c-0.59142303 0 -1.0708666 -0.47944355 -1.0708666 -1.0708666z" fill-rule="evenodd"/><path fill="#000000" d="m9.597832 11.585301l0 0c0 -0.59142303 0.47944355 -1.0708656 1.0708666 -1.0708656l0 0c0.2840109 0 0.5563898 0.11282253 0.75721645 0.31364918c0.20082664 0.20082664 0.31364918 0.47320557 0.31364918 0.75721645l0 0c0 0.59142303 -0.4794426 1.0708666 -1.0708656 1.0708666l0 0c-0.59142303 0 -1.0708666 -0.47944355 -1.0708666 -1.0708666z" fill-rule="evenodd"/><path fill="#000000" d="m9.597832 14.586615l0 0c0 -0.59142303 0.47944355 -1.0708666 1.0708666 -1.0708666l0 0c0.2840109 0 0.5563898 0.11282349 0.75721645 0.31364918c0.20082664 0.20082664 0.31364918 0.47320557 0.31364918 0.7572174l0 0c0 0.59142303 -0.4794426 1.0708656 -1.0708656 1.0708656l0 0c-0.59142303 0 -1.0708666 -0.4794426 -1.0708666 -1.0708656z" fill-rule="evenodd"/><path fill="#000000" d="m12.343239 10.041995l0 0c0 -0.59142303 0.4794426 -1.0708666 1.0708656 -1.0708666l0 0c0.28401184 0 0.55639076 0.11282349 0.7572174 0.31364918c0.20082569 0.20082664 0.31364918 0.47320557 0.31364918 0.7572174l0 0c0 0.59142303 -0.47944355 1.0708656 -1.0708666 1.0708656l0 0c-0.59142303 0 -1.0708656 -0.4794426 -1.0708656 -1.0708656z" fill-rule="evenodd"/><path fill="#000000" d="m12.343239 13.04462l0 0c0 -0.59142303 0.4794426 -1.0708666 1.0708656 -1.0708666l0 0c0.28401184 0 0.55639076 0.11282349 0.7572174 0.31365013c0.20082569 0.20082569 0.31364918 0.4732046 0.31364918 0.75721645l0 0c0 0.59142303 -0.47944355 1.0708656 -1.0708666 1.0708656l0 0c-0.59142303 0 -1.0708656 -0.4794426 -1.0708656 -1.0708656z" fill-rule="evenodd"/><path fill="#000000" d="m15.088645 8.582677l0 0c0 -0.59142256 0.47944355 -1.0708656 1.0708666 -1.0708656l0 0c0.28401184 0 0.55639076 0.11282301 0.7572174 0.31364918c0.20082474 0.20082664 0.31364822 0.47320557 0.31364822 0.75721645l0 0c0 0.59142303 -0.4794426 1.0708666 -1.0708656 1.0708666l0 0c-0.59142303 0 -1.0708666 -0.47944355 -1.0708666 -1.0708666z" fill-rule="evenodd"/><path fill="#000000" d="m15.088645 11.585301l0 0c0 -0.59142303 0.47944355 -1.0708656 1.0708666 -1.0708656l0 0c0.28401184 0 0.55639076 0.11282253 0.7572174 0.31364918c0.20082474 0.20082664 0.31364822 0.47320557 0.31364822 0.75721645l0 0c0 0.59142303 -0.4794426 1.0708666 -1.0708656 1.0708666l0 0c-0.59142303 0 -1.0708666 -0.47944355 -1.0708666 -1.0708666z" fill-rule="evenodd"/><path fill="#000000" d="m15.088645 14.586615l0 0c0 -0.59142303 0.47944355 -1.0708666 1.0708666 -1.0708666l0 0c0.28401184 0 0.55639076 0.11282349 0.7572174 0.31364918c0.20082474 0.20082664 0.31364822 0.47320557 0.31364822 0.7572174l0 0c0 0.59142303 -0.4794426 1.0708656 -1.0708656 1.0708656l0 0c-0.59142303 0 -1.0708666 -0.4794426 -1.0708666 -1.0708656z" fill-rule="evenodd"/><path fill="#000000" d="m17.834053 10.041995l0 0c0 -0.59142303 0.4794426 -1.0708666 1.0708656 -1.0708666l0 0c0.28401184 0 0.55639076 0.11282349 0.7572155 0.31364918c0.20082664 0.20082664 0.31365013 0.47320557 0.31365013 0.7572174l0 0c0 0.59142303 -0.4794426 1.0708656 -1.0708656 1.0708656l0 0c-0.59142303 0 -1.0708656 -0.4794426 -1.0708656 -1.0708656z" fill-rule="evenodd"/><path fill="#000000" d="m17.834053 13.04462l0 0c0 -0.59142303 0.4794426 -1.0708666 1.0708656 -1.0708666l0 0c0.28401184 0 0.55639076 0.11282349 0.7572155 0.31365013c0.20082664 0.20082569 0.31365013 0.4732046 0.31365013 0.75721645l0 0c0 0.59142303 -0.4794426 1.0708656 -1.0708656 1.0708656l0 0c-0.59142303 0 -1.0708656 -0.4794426 -1.0708656 -1.0708656z" fill-rule="evenodd"/></g></svg>