<svg width="18" height="18" viewBox="0 0 18 18" fill="none" xmlns="http://www.w3.org/2000/svg">
<path fill-rule="evenodd" clip-rule="evenodd" d="M9 0C8.45 0 8 0.45 8 1V9C8 9.55 8.45 10 9 10C9.55 10 10 9.55 10 9V1C10 0.45 9.55 0 9 0ZM14.1408 3.28569C13.7508 3.66487 13.7608 4.25793 14.1308 4.6371C15.2605 5.80378 15.9604 7.35935 16.0004 9.08021C16.0904 12.8039 12.921 16.0122 9.09178 16.0511C5.18256 16.1095 2.00319 13.0469 2.00319 9.25521C2.00319 7.4663 2.71305 5.84267 3.87282 4.62738C4.24275 4.24821 4.24275 3.65514 3.86282 3.28569C3.4629 2.8968 2.81303 2.90652 2.43311 3.30514C0.983396 4.80238 0.0735779 6.79546 0.00359189 9.00243C-0.13638 13.7469 3.83283 17.8498 8.71185 17.9956C13.8108 18.1511 18 14.1747 18 9.24549C18 6.94129 17.0802 4.86071 15.5805 3.30514C15.2006 2.90652 14.5407 2.8968 14.1408 3.28569V3.28569Z" fill="black"/>
</svg>
