<svg width="20" height="16" viewBox="0 0 20 16" fill="none" xmlns="http://www.w3.org/2000/svg">
<path d="M9.70623 0.0717092C9.79666 0.0246256 9.89755 0 10 0C10.1025 0 10.2033 0.0246256 10.2938 0.0717092L19.6695 4.96096C19.7694 5.01312 19.8528 5.09082 19.911 5.18576C19.9693 5.2807 20 5.38931 20 5.5C20 5.61069 19.9693 5.7193 19.911 5.81424C19.8528 5.90918 19.7694 5.98688 19.6695 6.03904L10.2938 10.9283C10.2033 10.9754 10.1025 11 10 11C9.89755 11 9.79666 10.9754 9.70623 10.9283L0.330495 6.03904C0.230647 5.98688 0.147161 5.90918 0.0889534 5.81424C0.0307454 5.7193 0 5.61069 0 5.5C0 5.38931 0.0307454 5.2807 0.0889534 5.18576C0.147161 5.09082 0.230647 5.01312 0.330495 4.96096L9.70623 0.0717092V0.0717092Z" fill="black"/>
<path d="M2.65568 9L0.330495 10.1705C0.230647 10.2208 0.147161 10.2958 0.0889534 10.3875C0.0307454 10.4791 0 10.584 0 10.6908C0 10.7977 0.0307454 10.9025 0.0889534 10.9941C0.147161 11.0858 0.230647 11.1608 0.330495 11.2111L9.70623 15.9308C9.79666 15.9762 9.89755 16 10 16C10.1025 16 10.2033 15.9762 10.2938 15.9308L19.6695 11.2111C19.7694 11.1608 19.8528 11.0858 19.911 10.9941C19.9693 10.9025 20 10.7977 20 10.6908C20 10.584 19.9693 10.4791 19.911 10.3875C19.8528 10.2958 19.7694 10.2208 19.6695 10.1705L17.3443 9L10.8813 12.2518C10.61 12.3882 10.3074 12.4595 10 12.4595C9.69264 12.4595 9.38998 12.3882 9.11868 12.2518L2.65568 9Z" fill="black"/>
</svg>
