<svg width="31" height="31" viewBox="0 0 31 31" fill="none" xmlns="http://www.w3.org/2000/svg">
<path d="M3.875 14.2083H14.2083V3.875H3.875V14.2083ZM6.45833 6.45833H11.625V11.625H6.45833V6.45833ZM3.875 27.125H14.2083V16.7917H3.875V27.125ZM6.45833 19.375H11.625V24.5417H6.45833V19.375ZM16.7917 3.875V14.2083H27.125V3.875H16.7917ZM24.5417 11.625H19.375V6.45833H24.5417V11.625ZM16.8046 16.7917H19.3879V19.375H16.8046V16.7917ZM19.3879 19.375H21.9713V21.9583H19.3879V19.375ZM16.8046 21.9583H19.3879V24.5417H16.8046V21.9583ZM21.9713 21.9583H24.5546V24.5417H21.9713V21.9583ZM24.5546 24.5417H27.1379V27.125H24.5546V24.5417ZM19.3879 24.5417H21.9713V27.125H19.3879V24.5417ZM21.9713 16.7917H24.5546V19.375H21.9713V16.7917ZM24.5546 19.375H27.1379V21.9583H24.5546V19.375Z" fill="black"/>
</svg>
