<svg width="24" height="24" viewBox="0 0 24 24" fill="none" xmlns="http://www.w3.org/2000/svg">
<path d="M13.4539 15.5961C13.4187 15.5612 13.3711 15.5416 13.3215 15.5416C13.2719 15.5416 13.2243 15.5612 13.1891 15.5961L10.4656 18.3196C9.20471 19.5805 7.07659 19.7141 5.6844 18.3196C4.28987 16.925 4.42346 14.7992 5.6844 13.5383L8.40784 10.8149C8.48049 10.7422 8.48049 10.6227 8.40784 10.55L7.47502 9.61721C7.43978 9.58232 7.3922 9.56274 7.3426 9.56274C7.29301 9.56274 7.24542 9.58232 7.21018 9.61721L4.48674 12.3407C2.50393 14.3235 2.50393 17.5321 4.48674 19.5125C6.46956 21.493 9.67815 21.4953 11.6586 19.5125L14.3821 16.7891C14.4547 16.7164 14.4547 16.5969 14.3821 16.5242L13.4539 15.5961ZM19.5149 4.48674C17.5321 2.50393 14.3235 2.50393 12.343 4.48674L9.61721 7.21018C9.58232 7.24542 9.56274 7.29301 9.56274 7.3426C9.56274 7.3922 9.58232 7.43978 9.61721 7.47502L10.5477 8.40549C10.6203 8.47815 10.7399 8.47815 10.8125 8.40549L13.536 5.68206C14.7969 4.42112 16.925 4.28752 18.3172 5.68206C19.7117 7.07659 19.5781 9.20237 18.3172 10.4633L15.5938 13.1867C15.5589 13.222 15.5393 13.2696 15.5393 13.3192C15.5393 13.3688 15.5589 13.4163 15.5938 13.4516L16.5266 14.3844C16.5992 14.4571 16.7188 14.4571 16.7914 14.3844L19.5149 11.661C21.4953 9.67815 21.4953 6.46956 19.5149 4.48674ZM14.3 8.72659C14.2648 8.69169 14.2172 8.67212 14.1676 8.67212C14.118 8.67212 14.0704 8.69169 14.0352 8.72659L8.72659 14.0328C8.69169 14.0681 8.67212 14.1157 8.67212 14.1653C8.67212 14.2149 8.69169 14.2624 8.72659 14.2977L9.65471 15.2258C9.72737 15.2985 9.8469 15.2985 9.91956 15.2258L15.2258 9.91956C15.2985 9.8469 15.2985 9.72737 15.2258 9.65471L14.3 8.72659Z" fill="black" />
</svg>
