<svg width="24" height="24" viewBox="0 0 24 24" fill="none" xmlns="http://www.w3.org/2000/svg">
<path d="M21.6759 14.6634L20.1408 13.3509C20.2134 12.9055 20.2509 12.4509 20.2509 11.9962C20.2509 11.5415 20.2134 11.0868 20.1408 10.6415L21.6759 9.32898C21.7917 9.22985 21.8746 9.09783 21.9135 8.95046C21.9524 8.80309 21.9456 8.64736 21.8939 8.50398L21.8728 8.44304C21.4502 7.26185 20.8173 6.16687 20.0048 5.21101L19.9626 5.16179C19.8641 5.0459 19.7327 4.96259 19.5858 4.92284C19.439 4.88309 19.2835 4.88878 19.14 4.93914L17.2345 5.61648C16.5314 5.03992 15.7462 4.58523 14.8978 4.26648L14.5298 2.27429C14.5021 2.12439 14.4293 1.98649 14.3213 1.8789C14.2133 1.77131 14.0751 1.69913 13.9251 1.67195L13.8618 1.66023C12.6408 1.43992 11.3564 1.43992 10.1353 1.66023L10.072 1.67195C9.92199 1.69913 9.78381 1.77131 9.6758 1.8789C9.56779 1.98649 9.49508 2.12439 9.46731 2.27429L9.097 4.27585C8.25533 4.59467 7.47153 5.04912 6.77669 5.62117L4.85716 4.93914C4.71364 4.88838 4.55807 4.88249 4.41113 4.92226C4.26419 4.96203 4.13283 5.04558 4.0345 5.16179L3.99231 5.21101C3.18078 6.16755 2.54804 7.26235 2.12435 8.44304L2.10325 8.50398C1.99778 8.79695 2.0845 9.12507 2.32122 9.32898L3.87513 10.6555C3.80247 11.0962 3.76731 11.5462 3.76731 11.9938C3.76731 12.4438 3.80247 12.8938 3.87513 13.3321L2.32122 14.6587C2.20543 14.7578 2.12256 14.8898 2.08362 15.0372C2.04469 15.1846 2.05153 15.3403 2.10325 15.4837L2.12435 15.5446C2.54856 16.7259 3.17669 17.8157 3.99231 18.7766L4.0345 18.8259C4.13307 18.9417 4.26443 19.0251 4.41129 19.0648C4.55814 19.1046 4.7136 19.0989 4.85716 19.0485L6.77669 18.3665C7.47513 18.9407 8.2556 19.3954 9.097 19.7118L9.46731 21.7134C9.49508 21.8633 9.56779 22.0012 9.6758 22.1088C9.78381 22.2163 9.92199 22.2885 10.072 22.3157L10.1353 22.3274C11.3676 22.5489 12.6295 22.5489 13.8618 22.3274L13.9251 22.3157C14.0751 22.2885 14.2133 22.2163 14.3213 22.1088C14.4293 22.0012 14.5021 21.8633 14.5298 21.7134L14.8978 19.7212C15.7459 19.4033 16.5355 18.9471 17.2345 18.3712L19.14 19.0485C19.2835 19.0993 19.4391 19.1052 19.586 19.0654C19.7329 19.0256 19.8643 18.9421 19.9626 18.8259L20.0048 18.7766C20.8204 17.8134 21.4486 16.7259 21.8728 15.5446L21.8939 15.4837C21.9993 15.1954 21.9126 14.8673 21.6759 14.6634ZM18.4767 10.918C18.5353 11.2719 18.5658 11.6352 18.5658 11.9985C18.5658 12.3618 18.5353 12.7251 18.4767 13.079L18.322 14.0188L20.0728 15.5165C19.8074 16.1279 19.4723 16.7068 19.0743 17.2415L16.8993 16.4704L16.1634 17.0751C15.6033 17.5344 14.9798 17.8954 14.3048 18.1485L13.4118 18.4837L12.9923 20.7571C12.3304 20.8321 11.6621 20.8321 11.0001 20.7571L10.5806 18.479L9.69466 18.1391C9.02669 17.886 8.4056 17.5251 7.85013 17.068L7.11419 16.461L4.92513 17.2391C4.52669 16.7024 4.19388 16.1235 3.92669 15.5141L5.69622 14.0024L5.54388 13.0649C5.48763 12.7157 5.45716 12.3548 5.45716 11.9985C5.45716 11.6399 5.48528 11.2813 5.54388 10.9321L5.69622 9.9946L3.92669 8.48289C4.19153 7.87117 4.52669 7.2946 4.92513 6.75789L7.11419 7.53601L7.85013 6.92898C8.4056 6.47195 9.02669 6.11101 9.69466 5.85789L10.5829 5.52273L11.0025 3.2446C11.6611 3.1696 12.3337 3.1696 12.9947 3.2446L13.4142 5.51804L14.3072 5.8532C14.9798 6.10632 15.6056 6.46726 16.1658 6.92664L16.9017 7.53132L19.0767 6.76023C19.4751 7.29695 19.8079 7.87585 20.0751 8.48523L18.3243 9.98289L18.4767 10.918ZM12.0009 7.63914C9.72278 7.63914 7.87591 9.48601 7.87591 11.7641C7.87591 14.0423 9.72278 15.8891 12.0009 15.8891C14.279 15.8891 16.1259 14.0423 16.1259 11.7641C16.1259 9.48601 14.279 7.63914 12.0009 7.63914ZM13.8572 13.6204C13.6137 13.8646 13.3244 14.0582 13.0058 14.1901C12.6872 14.322 12.3457 14.3897 12.0009 14.3891C11.3001 14.3891 10.6415 14.1149 10.1447 13.6204C9.90049 13.3769 9.70688 13.0876 9.57495 12.769C9.44301 12.4504 9.37537 12.1089 9.37591 11.7641C9.37591 11.0634 9.65013 10.4048 10.1447 9.90789C10.6415 9.41101 11.3001 9.13914 12.0009 9.13914C12.7017 9.13914 13.3603 9.41101 13.8572 9.90789C14.1013 10.1514 14.2949 10.4407 14.4269 10.7593C14.5588 11.0778 14.6264 11.4193 14.6259 11.7641C14.6259 12.4649 14.3517 13.1235 13.8572 13.6204Z" fill="black" />
</svg>
