<svg width="24" height="24" viewBox="0 0 24 24" fill="none" xmlns="http://www.w3.org/2000/svg">
<g clip-path="url(#clip0_100_87)">
<path d="M12 11.1C13.1935 11.1 14.3381 11.5741 15.1819 12.4181C16.0259 13.2619 16.5 14.4065 16.5 15.6V21H7.5V15.6C7.5 14.4065 7.9741 13.2619 8.81802 12.4181C9.66193 11.5741 10.8065 11.1 12 11.1ZM5.9592 13.8054C5.81597 14.2885 5.73136 14.7871 5.7072 15.2904L5.7 15.6V21H3V16.95C2.99982 16.1738 3.28623 15.4249 3.80427 14.8469C4.32232 14.2689 5.03553 13.9025 5.8071 13.818L5.9592 13.8054ZM18.0408 13.8054C18.8417 13.8542 19.5938 14.2068 20.1437 14.7911C20.6936 15.3754 20.9999 16.1476 21 16.95V21H18.3V15.6C18.3 14.9763 18.21 14.3742 18.0408 13.8054ZM6.15 8.4C6.74674 8.4 7.31904 8.63705 7.74099 9.05901C8.16295 9.48096 8.4 10.0533 8.4 10.65C8.4 11.2467 8.16295 11.819 7.74099 12.241C7.31904 12.6629 6.74674 12.9 6.15 12.9C5.55326 12.9 4.98096 12.6629 4.55901 12.241C4.13705 11.819 3.9 11.2467 3.9 10.65C3.9 10.0533 4.13705 9.48096 4.55901 9.05901C4.98096 8.63705 5.55326 8.4 6.15 8.4ZM17.85 8.4C18.4467 8.4 19.019 8.63705 19.441 9.05901C19.8629 9.48096 20.1 10.0533 20.1 10.65C20.1 11.2467 19.8629 11.819 19.441 12.241C19.019 12.6629 18.4467 12.9 17.85 12.9C17.2533 12.9 16.681 12.6629 16.259 12.241C15.8371 11.819 15.6 11.2467 15.6 10.65C15.6 10.0533 15.8371 9.48096 16.259 9.05901C16.681 8.63705 17.2533 8.4 17.85 8.4ZM12 3C12.9548 3 13.8705 3.37928 14.5456 4.05441C15.2207 4.72955 15.6 5.64522 15.6 6.6C15.6 7.55478 15.2207 8.47045 14.5456 9.14559C13.8705 9.82071 12.9548 10.2 12 10.2C11.0452 10.2 10.1295 9.82071 9.45441 9.14559C8.77929 8.47045 8.4 7.55478 8.4 6.6C8.4 5.64522 8.77929 4.72955 9.45441 4.05441C10.1295 3.37928 11.0452 3 12 3Z" fill="#000000"/>
</g>
<defs>
<clipPath id="clip0_100_87">
<rect width="18" height="18" fill="white" transform="translate(3 3)"/>
</clipPath>
</defs>
</svg>
