<svg width="18" height="18" viewBox="0 0 18 18" fill="none" xmlns="http://www.w3.org/2000/svg">
<path fill-rule="evenodd" clip-rule="evenodd" d="M16 0H2C0.9 0 0 0.9 0 2V9C0 10.1 0.9 11 2 11H16C17.1 11 18 10.1 18 9V2C18 0.9 17.1 0 16 0ZM16 6H12.86C12.39 6 12.02 6.33 11.89 6.78C11.53 8.04 10.35 9 9 9C7.65 9 6.47 8.04 6.11 6.78C5.98 6.33 5.61 6 5.14 6H2V3C2 2.45 2.45 2 3 2H15C15.55 2 16 2.45 16 3V6ZM12.87 13H17C17.55 13 18 13.45 18 14V16C18 17.1 17.1 18 16 18H2C0.9 18 0 17.1 0 16V14C0 13.45 0.45 13 1 13H5.13C5.6 13 5.98 13.34 6.11 13.8C6.46 15.07 7.62 16 9 16C10.38 16 11.54 15.07 11.89 13.8C12.02 13.34 12.4 13 12.87 13Z" fill="black"/>
</svg>
